<svg height="335.0" width="444.0" xmlns="http://www.w3.org/2000/svg"><desc>{"leftTopX": 6850, "leftTopY": 6924, "rightBottomX": 7294, "rightBottomY": 7219}</desc><g transform="translate(0.5,0.5)"><g class="reference"><polyline fill="none" points="192.5,88.0 272.5,88.0" stroke="#000000" stroke-linejoin="miter"/><g class="cardinality"><line stroke="#000000" stroke-width="1.0" x1="249.0" x2="264.0" y1="88.0" y2="82.0"/><line stroke="#000000" stroke-width="1.0" x1="249.0" x2="264.0" y1="88.0" y2="94.0"/><g transform="translate(249.0,88.0)"><circle fill="white" r="3.5" stroke="#000000" stroke-width="1.0"/></g></g><g class="mandatory"><g transform="translate(219.0,88.0)"><circle fill="white" r="3.5" stroke="#000000" stroke-width="1.0"/></g></g></g><g class="reference"><polyline fill="none" points="338.5,122.0 338.5,203.0" stroke="#000000" stroke-linejoin="miter"/><g class="cardinality"><line stroke="#000000" stroke-width="1.0" x1="338.5" x2="332.5" y1="179.0" y2="194.0"/><line stroke="#000000" stroke-width="1.0" x1="338.5" x2="344.5" y1="179.0" y2="194.0"/><g transform="translate(338.5,179.0)"><circle fill="white" r="3.5" stroke="#000000" stroke-width="1.0"/></g></g><g class="mandatory"><line stroke="#000000" stroke-width="1.0" x1="332.5" x2="344.5" y1="148.0" y2="148.0"/></g></g><g class="reference"><polyline fill="none" points="164.5,230.0 264.5,230.0" stroke="#000000" stroke-linejoin="miter"/><g class="cardinality"><line stroke="#000000" stroke-width="1.0" x1="241.0" x2="256.0" y1="230.0" y2="224.0"/><line stroke="#000000" stroke-width="1.0" x1="241.0" x2="256.0" y1="230.0" y2="236.0"/><g transform="translate(241.0,230.0)"><circle fill="white" r="3.5" stroke="#000000" stroke-width="1.0"/></g></g><g class="mandatory"><line stroke="#000000" stroke-width="1.0" x1="191.0" x2="191.0" y1="224.0" y2="236.0"/></g></g><g class="table" transform="translate(20.0,20.0)"><g transform="translate(0.0,0.0)"><rect fill="#f0f0f0" height="20.0" width="184.0"/></g><g transform="translate(0.0,0.0)"><text fill="black" font-family="arial, sans-serif" font-size="12" font-weight="700" text-anchor="middle" x="93.0" y="14.190625">Clients</text></g><g transform="translate(0.0,20.0)"><rect fill="#ffffff" height="117.0" width="184.0"/><g transform="translate(4.0,3.0)"><g transform="translate(0.0,0.0)"><text fill="black" font-family="arial, sans-serif" font-size="12" font-weight="400" x="1.0" y="11.138671875">numero</text></g><g transform="translate(0.0,14.0)"><text fill="black" font-family="arial, sans-serif" font-size="12" font-weight="400" x="1.0" y="11.138671875">nom</text></g><g transform="translate(0.0,28.0)"><text fill="black" font-family="arial, sans-serif" font-size="12" font-weight="400" x="1.0" y="11.138671875">email</text></g><g transform="translate(0.0,42.0)"><text fill="black" font-family="arial, sans-serif" font-size="12" font-weight="400" x="1.0" y="11.138671875">rue</text></g><g transform="translate(0.0,56.0)"><text fill="black" font-family="arial, sans-serif" font-size="12" font-weight="400" x="1.0" y="11.138671875">codePostal</text></g><g transform="translate(0.0,70.0)"><text fill="black" font-family="arial, sans-serif" font-size="12" font-weight="400" x="1.0" y="11.138671875">ville</text></g><g transform="translate(0.0,84.0)"><text fill="black" font-family="arial, sans-serif" font-size="12" font-weight="400" x="1.0" y="11.138671875">telephone</text></g></g><g transform="translate(82.5,3.0)"><g transform="translate(0.0,0.0)"><text fill="black" font-family="arial, sans-serif" font-size="12" font-weight="400" x="1.0" y="11.138671875">int</text></g><g transform="translate(0.0,14.0)"><text fill="black" font-family="arial, sans-serif" font-size="12" font-weight="400" x="1.0" y="11.138671875">varchar(255)</text></g><g transform="translate(0.0,28.0)"><text fill="black" font-family="arial, sans-serif" font-size="12" font-weight="400" x="1.0" y="11.138671875">varchar(255)</text></g><g transform="translate(0.0,42.0)"><text fill="black" font-family="arial, sans-serif" font-size="12" font-weight="400" x="1.0" y="11.138671875">varchar(255)</text></g><g transform="translate(0.0,56.0)"><text fill="black" font-family="arial, sans-serif" font-size="12" font-weight="400" x="1.0" y="11.138671875">varchar(255)</text></g><g transform="translate(0.0,70.0)"><text fill="black" font-family="arial, sans-serif" font-size="12" font-weight="400" x="1.0" y="11.138671875">varchar(255)</text></g><g transform="translate(0.0,84.0)"><text fill="black" font-family="arial, sans-serif" font-size="12" font-weight="400" x="1.0" y="11.138671875">varchar(255)</text></g></g><g transform="translate(164.75,3.0)"><g transform="translate(0.0,0.0)"><text fill="black" font-family="arial, sans-serif" font-size="12" font-weight="400" x="1.0" y="11.138671875">PK</text></g><g transform="translate(0.0,14.0)"><text fill="black" font-family="arial, sans-serif" font-size="12" font-weight="400" x="1.0" y="11.138671875">N</text></g><g transform="translate(0.0,28.0)"><text fill="black" font-family="arial, sans-serif" font-size="12" font-weight="400" x="1.0" y="11.138671875">N</text></g><g transform="translate(0.0,42.0)"><text fill="black" font-family="arial, sans-serif" font-size="12" font-weight="400" x="1.0" y="11.138671875">N</text></g><g transform="translate(0.0,56.0)"><text fill="black" font-family="arial, sans-serif" font-size="12" font-weight="400" x="1.0" y="11.138671875">N</text></g><g transform="translate(0.0,70.0)"><text fill="black" font-family="arial, sans-serif" font-size="12" font-weight="400" x="1.0" y="11.138671875">N</text></g><g transform="translate(0.0,84.0)"><text fill="black" font-family="arial, sans-serif" font-size="12" font-weight="400" x="1.0" y="11.138671875">N</text></g></g></g><polyline fill="none" points="0.0,20.0 0.0,0.0 184.0,0.0 184.0,20.0 0.0,20.0 0.0,137.0 184.0,137.0 184.0,20.0" stroke="#000000" stroke-linejoin="miter"/></g><g class="table" transform="translate(264.0,44.0)"><g transform="translate(0.0,0.0)"><rect fill="#f0f0f0" height="20.0" width="152.0"/></g><g transform="translate(0.0,0.0)"><text fill="black" font-family="arial, sans-serif" font-size="12" font-weight="700" text-anchor="middle" x="77.0" y="14.190625">Commandes</text></g><g transform="translate(0.0,20.0)"><rect fill="#ffffff" height="69.0" width="152.0"/><g transform="translate(4.0,3.0)"><g transform="translate(0.0,0.0)"><text fill="black" font-family="arial, sans-serif" font-size="12" font-weight="400" x="1.0" y="11.138671875">num</text></g><g transform="translate(0.0,14.0)"><text fill="black" font-family="arial, sans-serif" font-size="12" font-weight="400" x="1.0" y="11.138671875">num</text></g><g transform="translate(0.0,28.0)"><text fill="black" font-family="arial, sans-serif" font-size="12" font-weight="400" x="1.0" y="11.138671875">date</text></g><g transform="translate(0.0,42.0)"><text fill="black" font-family="arial, sans-serif" font-size="12" font-weight="400" x="1.0" y="11.138671875">stat</text></g></g><g transform="translate(38.0,3.0)"><g transform="translate(0.0,0.0)"><text fill="black" font-family="arial, sans-serif" font-size="12" font-weight="400" x="1.0" y="11.138671875">int</text></g><g transform="translate(0.0,14.0)"><text fill="black" font-family="arial, sans-serif" font-size="12" font-weight="400" x="1.0" y="11.138671875">int</text></g><g transform="translate(0.0,28.0)"><text fill="black" font-family="arial, sans-serif" font-size="12" font-weight="400" x="1.0" y="11.138671875">date</text></g><g transform="translate(0.0,42.0)"><text fill="black" font-family="arial, sans-serif" font-size="12" font-weight="400" x="1.0" y="11.138671875">varchar(255)</text></g></g><g transform="translate(120.25,3.0)"><g transform="translate(0.0,0.0)"><text fill="black" font-family="arial, sans-serif" font-size="12" font-weight="400" x="1.0" y="11.138671875">PK</text></g><g transform="translate(0.0,14.0)"><text fill="black" font-family="arial, sans-serif" font-size="12" font-weight="400" x="1.0" y="11.138671875">N FK</text></g><g transform="translate(0.0,28.0)"><text fill="black" font-family="arial, sans-serif" font-size="12" font-weight="400" x="1.0" y="11.138671875">N</text></g><g transform="translate(0.0,42.0)"><text fill="black" font-family="arial, sans-serif" font-size="12" font-weight="400" x="1.0" y="11.138671875">N</text></g></g></g><polyline fill="none" points="0.0,20.0 0.0,0.0 152.0,0.0 152.0,20.0 0.0,20.0 0.0,89.0 152.0,89.0 152.0,20.0" stroke="#000000" stroke-linejoin="miter"/></g><g class="table" transform="translate(48.0,186.0)"><g transform="translate(0.0,0.0)"><rect fill="#f0f0f0" height="20.0" width="128.0"/></g><g transform="translate(0.0,0.0)"><text fill="black" font-family="arial, sans-serif" font-size="12" font-weight="700" text-anchor="middle" x="65.0" y="14.190625">Produits</text></g><g transform="translate(0.0,20.0)"><rect fill="#ffffff" height="69.0" width="128.0"/><g transform="translate(4.0,3.0)"><g transform="translate(0.0,0.0)"><text fill="black" font-family="arial, sans-serif" font-size="12" font-weight="400" x="1.0" y="11.138671875">nu</text></g><g transform="translate(0.0,14.0)"><text fill="black" font-family="arial, sans-serif" font-size="12" font-weight="400" x="1.0" y="11.138671875">no</text></g><g transform="translate(0.0,28.0)"><text fill="black" font-family="arial, sans-serif" font-size="12" font-weight="400" x="1.0" y="11.138671875">pri</text></g><g transform="translate(0.0,42.0)"><text fill="black" font-family="arial, sans-serif" font-size="12" font-weight="400" x="1.0" y="11.138671875">sto</text></g></g><g transform="translate(26.5,3.0)"><g transform="translate(0.0,0.0)"><text fill="black" font-family="arial, sans-serif" font-size="12" font-weight="400" x="1.0" y="11.138671875">int</text></g><g transform="translate(0.0,14.0)"><text fill="black" font-family="arial, sans-serif" font-size="12" font-weight="400" x="1.0" y="11.138671875">varchar(255)</text></g><g transform="translate(0.0,28.0)"><text fill="black" font-family="arial, sans-serif" font-size="12" font-weight="400" x="1.0" y="11.138671875">double</text></g><g transform="translate(0.0,42.0)"><text fill="black" font-family="arial, sans-serif" font-size="12" font-weight="400" x="1.0" y="11.138671875">int</text></g></g><g transform="translate(108.75,3.0)"><g transform="translate(0.0,0.0)"><text fill="black" font-family="arial, sans-serif" font-size="12" font-weight="400" x="1.0" y="11.138671875">PK</text></g><g transform="translate(0.0,14.0)"><text fill="black" font-family="arial, sans-serif" font-size="12" font-weight="400" x="1.0" y="11.138671875">N</text></g><g transform="translate(0.0,28.0)"><text fill="black" font-family="arial, sans-serif" font-size="12" font-weight="400" x="1.0" y="11.138671875">N</text></g><g transform="translate(0.0,42.0)"><text fill="black" font-family="arial, sans-serif" font-size="12" font-weight="400" x="1.0" y="11.138671875">N</text></g></g></g><polyline fill="none" points="0.0,20.0 0.0,0.0 128.0,0.0 128.0,20.0 0.0,20.0 0.0,89.0 128.0,89.0 128.0,20.0" stroke="#000000" stroke-linejoin="miter"/></g><g class="table" transform="translate(256.0,194.0)"><g transform="translate(0.0,0.0)"><rect fill="#f0f0f0" height="20.0" width="168.0"/></g><g transform="translate(0.0,0.0)"><text fill="black" font-family="arial, sans-serif" font-size="12" font-weight="700" text-anchor="middle" x="85.0" y="14.190625">Details</text></g><g transform="translate(0.0,20.0)"><rect fill="#ffffff" height="53.0" width="168.0"/><g transform="translate(4.0,3.0)"><g transform="translate(0.0,0.0)"><text fill="black" font-family="arial, sans-serif" font-size="12" font-weight="400" x="1.0" y="11.138671875">numeroComman</text></g><g transform="translate(0.0,14.0)"><text fill="black" font-family="arial, sans-serif" font-size="12" font-weight="400" x="1.0" y="11.138671875">numeroProduit</text></g><g transform="translate(0.0,28.0)"><text fill="black" font-family="arial, sans-serif" font-size="12" font-weight="400" x="1.0" y="11.138671875">quantite</text></g></g><g transform="translate(110.5,3.0)"><g transform="translate(0.0,0.0)"><text fill="black" font-family="arial, sans-serif" font-size="12" font-weight="400" x="1.0" y="11.138671875">int</text></g><g transform="translate(0.0,14.0)"><text fill="black" font-family="arial, sans-serif" font-size="12" font-weight="400" x="1.0" y="11.138671875">int</text></g><g transform="translate(0.0,28.0)"><text fill="black" font-family="arial, sans-serif" font-size="12" font-weight="400" x="1.0" y="11.138671875">int</text></g></g><g transform="translate(130.25,3.0)"><g transform="translate(0.0,0.0)"><text fill="black" font-family="arial, sans-serif" font-size="12" font-weight="400" x="1.0" y="11.138671875">PK FK</text></g><g transform="translate(0.0,14.0)"><text fill="black" font-family="arial, sans-serif" font-size="12" font-weight="400" x="1.0" y="11.138671875">PK FK</text></g><g transform="translate(0.0,28.0)"><text fill="black" font-family="arial, sans-serif" font-size="12" font-weight="400" x="1.0" y="11.138671875">N</text></g></g></g><polyline fill="none" points="0.0,20.0 0.0,0.0 168.0,0.0 168.0,20.0 0.0,20.0 0.0,73.0 168.0,73.0 168.0,20.0" stroke="#000000" stroke-linejoin="miter"/></g><g transform="translate(268.0,285.0)"><svg height="40" width="166"><svg xmlns:xlink="http://www.w3.org/1999/xlink" enable-background="new 0 0 487.7 116.5" id="Layer_1" version="1.0" viewBox="0 0 487.7 116.5" x="0px" xml:space="preserve" y="0px">
</svg></svg></g></g></svg>
