<?xml version="1.0" standalone="no"?>
<!DOCTYPE svg PUBLIC "-//W3C//DTD SVG 20010904//EN"
 "http://www.w3.org/TR/2001/REC-SVG-20010904/DTD/svg10.dtd">
<svg version="1.0" xmlns="http://www.w3.org/2000/svg"
 width="512.000000pt" height="512.000000pt" viewBox="0 0 512.000000 512.000000"
 preserveAspectRatio="xMidYMid meet">

<g transform="translate(0.000000,512.000000) scale(0.100000,-0.100000)"
fill="#000000" stroke="none">
<path d="M361 4578 c-66 -15 -126 -79 -141 -152 -17 -83 0 -148 54 -202 53
-54 92 -64 244 -64 l122 0 0 -1297 c0 -862 4 -1310 10 -1335 14 -50 55 -97
105 -119 37 -17 80 -19 663 -19 342 0 622 -3 622 -7 0 -4 -119 -127 -264 -273
-251 -252 -264 -267 -276 -316 -34 -150 104 -288 254 -253 49 11 64 25 429
388 l377 376 373 -372 c204 -204 381 -375 392 -381 152 -74 334 75 294 242
-11 48 -24 64 -275 316 -145 146 -264 269 -264 273 0 4 280 7 623 7 582 0 625
2 662 19 50 22 91 69 105 119 6 25 10 473 10 1335 l0 1297 123 0 c151 0 190
10 243 64 64 63 79 166 36 251 -21 43 -42 64 -87 89 l-40 21 -2175 1 c-1387 1
-2191 -2 -2219 -8z m3689 -1593 l0 -1175 -1490 0 -1490 0 0 1175 0 1175 1490
0 1490 0 0 -1175z"/>
<path d="M2271 3719 c-81 -32 -134 -111 -134 -198 0 -34 7 -70 18 -91 9 -19
109 -127 221 -240 l204 -205 -201 -200 c-245 -245 -267 -280 -235 -387 25 -86
115 -158 198 -158 89 0 97 6 411 318 191 191 304 311 317 337 25 52 26 127 1
180 -26 55 -592 619 -643 640 -41 17 -120 19 -157 4z"/>
</g>
</svg>
